<svg xmlns="http://www.w3.org/2000/svg" viewBox="0 0 200 200">
  <defs>
    <filter id="glow">
      <feGaussianBlur stdDeviation="1.5" result="blur"/>
      <feMerge>
        <feMergeNode in="blur"/>
        <feMergeNode in="SourceGraphic"/>
      </feMerge>
    </filter>
  </defs>

  <!-- Shield - solid indigo fill with bold outline -->
  <path d="M100 16 L166 42 Q170 44 170 48 L170 108 Q170 148 100 178 Q30 148 30 108 L30 48 Q30 44 34 42 Z" 
        fill="#6366f1"/>
  <path d="M100 16 L166 42 Q170 44 170 48 L170 108 Q170 148 100 178 Q30 148 30 108 L30 48 Q30 44 34 42 Z" 
        fill="none" stroke="#818cf8" stroke-width="4" stroke-linejoin="round"/>

  <!-- Ship's wheel - simplified for small sizes -->
  <g filter="url(#glow)">
    <circle cx="100" cy="92" r="42" fill="none" stroke="#f59e0b" stroke-width="6"/>
    <circle cx="100" cy="92" r="14" fill="#f59e0b"/>
    <circle cx="100" cy="92" r="8" fill="#fbbf24"/>
    <!-- Cardinal spokes only -->
    <line x1="100" y1="78" x2="100" y2="50" stroke="#f59e0b" stroke-width="6" stroke-linecap="round"/>
    <line x1="100" y1="106" x2="100" y2="134" stroke="#f59e0b" stroke-width="6" stroke-linecap="round"/>
    <line x1="86" y1="92" x2="58" y2="92" stroke="#f59e0b" stroke-width="6" stroke-linecap="round"/>
    <line x1="114" y1="92" x2="142" y2="92" stroke="#f59e0b" stroke-width="6" stroke-linecap="round"/>
    <!-- Cardinal pegs -->
    <circle cx="100" cy="48" r="8" fill="#fbbf24" stroke="#f59e0b" stroke-width="2"/>
    <circle cx="100" cy="136" r="8" fill="#fbbf24" stroke="#f59e0b" stroke-width="2"/>
    <circle cx="56" cy="92" r="8" fill="#fbbf24" stroke="#f59e0b" stroke-width="2"/>
    <circle cx="144" cy="92" r="8" fill="#fbbf24" stroke="#f59e0b" stroke-width="2"/>
  </g>
</svg>
