<svg xmlns="http://www.w3.org/2000/svg" viewBox="0 0 350 300">
  <g transform="translate(0, 5)">
    <!-- LEFT WING -->
    <ellipse cx="95" cy="153" rx="14" ry="10" fill="#b45309" opacity="0.6" stroke="#92400e" stroke-width="0.8"/>
    <circle cx="95" cy="153" r="5" fill="#d97706" stroke="#92400e" stroke-width="0.8"/>
    <path d="M88 146 Q68 118 50 75 Q40 45 30 10 Q28 2 33 0 Q38 0 40 6 Q50 38 60 68 Q74 105 85 138" fill="#92400e" opacity="0.4" stroke="#7c2d12" stroke-width="0.5"/>
    <path d="M86 143 Q68 112 54 70 Q46 42 38 14 Q36 8 40 6 Q44 6 46 12 Q54 40 64 70 Q76 105 85 135" fill="#b45309" opacity="0.45" stroke="#7c2d12" stroke-width="0.5"/>
    <path d="M86 140 Q70 108 58 68 Q52 44 46 20 Q44 14 48 12 Q52 12 54 18 Q60 44 68 70 Q78 104 86 130" fill="#d97706" opacity="0.5" stroke="#92400e" stroke-width="0.5"/>
    <path d="M86 136 Q72 104 62 68 Q58 46 54 28 Q52 22 56 20 Q60 20 61 26 Q66 46 72 70 Q80 102 86 125" fill="#d97706" opacity="0.55" stroke="#92400e" stroke-width="0.5"/>
    <path d="M88 132 Q76 102 68 70 Q64 50 60 34 Q59 28 62 27 Q66 27 67 32 Q70 50 76 72 Q82 102 88 120" fill="#fbbf24" opacity="0.55" stroke="#b45309" stroke-width="0.5"/>
    <path d="M90 128 Q80 100 74 72 Q70 54 68 42 Q67 36 70 35 Q73 35 74 40 Q76 54 80 74 Q86 102 90 115" fill="#fbbf24" opacity="0.5" stroke="#b45309" stroke-width="0.5"/>
    <path d="M84 130 Q70 98 56 60 Q48 38 40 14" fill="none" stroke="#fcd34d" stroke-width="1.2" opacity="0.35" stroke-linecap="round"/>
    <path d="M86 124 Q74 95 66 62 Q60 44 54 24" fill="none" stroke="#fcd34d" stroke-width="0.8" opacity="0.3" stroke-linecap="round"/>

    <!-- RIGHT WING -->
    <ellipse cx="255" cy="153" rx="14" ry="10" fill="#b45309" opacity="0.6" stroke="#92400e" stroke-width="0.8"/>
    <circle cx="255" cy="153" r="5" fill="#d97706" stroke="#92400e" stroke-width="0.8"/>
    <path d="M262 146 Q282 118 300 75 Q310 45 320 10 Q322 2 317 0 Q312 0 310 6 Q300 38 290 68 Q276 105 265 138" fill="#92400e" opacity="0.4" stroke="#7c2d12" stroke-width="0.5"/>
    <path d="M264 143 Q282 112 296 70 Q304 42 312 14 Q314 8 310 6 Q306 6 304 12 Q296 40 286 70 Q274 105 265 135" fill="#b45309" opacity="0.45" stroke="#7c2d12" stroke-width="0.5"/>
    <path d="M264 140 Q280 108 292 68 Q298 44 304 20 Q306 14 302 12 Q298 12 296 18 Q290 44 282 70 Q272 104 264 130" fill="#d97706" opacity="0.5" stroke="#92400e" stroke-width="0.5"/>
    <path d="M264 136 Q278 104 288 68 Q292 46 296 28 Q298 22 294 20 Q290 20 289 26 Q284 46 278 70 Q270 102 264 125" fill="#d97706" opacity="0.55" stroke="#92400e" stroke-width="0.5"/>
    <path d="M262 132 Q274 102 282 70 Q286 50 290 34 Q291 28 288 27 Q284 27 283 32 Q280 50 274 72 Q268 102 262 120" fill="#fbbf24" opacity="0.55" stroke="#b45309" stroke-width="0.5"/>
    <path d="M260 128 Q270 100 276 72 Q280 54 282 42 Q283 36 280 35 Q277 35 276 40 Q274 54 270 74 Q264 102 260 115" fill="#fbbf24" opacity="0.5" stroke="#b45309" stroke-width="0.5"/>
    <path d="M266 130 Q280 98 294 60 Q302 38 310 14" fill="none" stroke="#fcd34d" stroke-width="1.2" opacity="0.35" stroke-linecap="round"/>
    <path d="M264 124 Q276 95 284 62 Q290 44 296 24" fill="none" stroke="#fcd34d" stroke-width="0.8" opacity="0.3" stroke-linecap="round"/>

    <!-- HELM DOME -->
    <path d="M90 165 Q90 45 175 10 Q260 45 260 165" fill="#6366f1" opacity="0.1"/>
    <path d="M90 165 Q90 45 175 10 Q260 45 260 165" fill="none" stroke="#6366f1" stroke-width="1.5"/>
    <path d="M102 160 Q102 55 175 25 L175 160 Z" fill="#6366f1" opacity="0.04"/>
    <path d="M175 25 Q248 55 248 160 L175 160 Z" fill="#6366f1" opacity="0.07"/>

    <!-- Center ridge -->
    <path d="M171 10 L179 10 L182 165 L168 165 Z" fill="#6366f1" opacity="0.18"/>
    <line x1="175" y1="10" x2="175" y2="165" stroke="#6366f1" stroke-width="1.5" opacity="0.4"/>

    <!-- Cross plate -->
    <line x1="100" y1="100" x2="250" y2="100" stroke="#6366f1" stroke-width="0.5" opacity="0.2"/>

    <!-- Rivets -->
    <circle cx="132" cy="78" r="3" fill="#6366f1" opacity="0.3"/>
    <circle cx="175" cy="55" r="3" fill="#6366f1" opacity="0.3"/>
    <circle cx="218" cy="78" r="3" fill="#6366f1" opacity="0.3"/>
    <circle cx="118" cy="128" r="3" fill="#6366f1" opacity="0.3"/>
    <circle cx="232" cy="128" r="3" fill="#6366f1" opacity="0.3"/>
    <circle cx="142" cy="100" r="2.5" fill="#6366f1" opacity="0.25"/>
    <circle cx="208" cy="100" r="2.5" fill="#6366f1" opacity="0.25"/>

    <!-- ᚺ Hagalaz rune — BOLD -->
    <g transform="translate(155, 65)" opacity="0.55">
      <line x1="0" y1="0" x2="0" y2="48" stroke="#a5b4fc" stroke-width="4" stroke-linecap="round"/>
      <line x1="40" y1="0" x2="40" y2="48" stroke="#a5b4fc" stroke-width="4" stroke-linecap="round"/>
      <line x1="0" y1="16" x2="40" y2="32" stroke="#a5b4fc" stroke-width="4" stroke-linecap="round"/>
    </g>

    <!-- Brow band -->
    <path d="M82 160 L268 160" stroke="#6366f1" stroke-width="9" stroke-linecap="round"/>
    <path d="M86 160 L264 160" stroke="#818cf8" stroke-width="3.5" stroke-linecap="round" opacity="0.2"/>
    <path d="M110 156 L117 151 L124 156 L131 151 L138 156 L145 151 L152 156" fill="none" stroke="#a5b4fc" stroke-width="0.8" opacity="0.35"/>
    <path d="M198 156 L205 151 L212 156 L219 151 L226 156 L233 151 L240 156" fill="none" stroke="#a5b4fc" stroke-width="0.8" opacity="0.35"/>
    <circle cx="175" cy="160" r="5" fill="#6366f1" opacity="0.4" stroke="#818cf8" stroke-width="1"/>

    <!-- Eye guards -->
    <path d="M86 167 L86 184 L162 176 L162 164" fill="#6366f1" opacity="0.07" stroke="#6366f1" stroke-width="1" stroke-linejoin="round"/>
    <path d="M264 167 L264 184 L188 176 L188 164" fill="#6366f1" opacity="0.07" stroke="#6366f1" stroke-width="1" stroke-linejoin="round"/>
    <line x1="92" y1="173" x2="159" y2="168" stroke="#1e1b4b" stroke-width="2.5" opacity="0.18" stroke-linecap="round"/>
    <line x1="258" y1="173" x2="191" y2="168" stroke="#1e1b4b" stroke-width="2.5" opacity="0.18" stroke-linecap="round"/>

    <!-- Nose guard -->
    <path d="M170 164 L168 204 Q168 212 175 214 Q182 212 182 204 L180 164" fill="#6366f1" opacity="0.1" stroke="#6366f1" stroke-width="1.2"/>
    <circle cx="175" cy="180" r="2" fill="#6366f1" opacity="0.3"/>
    <circle cx="175" cy="194" r="1.5" fill="#6366f1" opacity="0.25"/>

    <!-- WORDMARK -->
    <text x="175" y="262" text-anchor="middle" font-family="'Outfit', sans-serif" font-size="36" font-weight="500" fill="#e2e8f0" letter-spacing="8">JAG<tspan fill="#6366f1">HELM</tspan></text>
    <text x="175" y="286" text-anchor="middle" font-family="'JetBrains Mono', monospace" font-size="11" fill="#94a3b8" letter-spacing="2.5">INFRASTRUCTURE DASHBOARD</text>
    <line x1="100" y1="296" x2="250" y2="296" stroke="#6366f1" stroke-width="0.5" opacity="0.3"/>
  </g>
</svg>
